<svg xmlns="http://www.w3.org/2000/svg" width="1027" height="1018" viewBox="0 0 1027 1018" version="1.1"><path d="M 879.373 9.126 C 878.780 9.882, 785.240 171.712, 671.507 368.750 C 557.775 565.787, 464.446 726.998, 464.110 726.995 C 463.775 726.993, 432.917 674.005, 395.537 609.245 C 358.158 544.485, 320.834 479.834, 312.596 465.574 C 304.358 451.315, 297.495 440.065, 297.347 440.574 C 297.126 441.331, 264.440 663.555, 263.718 669.207 C 263.598 670.146, 307.825 748.983, 362 844.400 C 435.627 974.077, 460.779 1017.584, 461.606 1016.693 C 462.215 1016.037, 564.477 840.324, 688.856 626.221 C 843.806 359.493, 914.984 236.085, 914.948 234.221 C 914.919 232.724, 907.145 181.157, 897.673 119.626 C 884.958 37.027, 880.169 8.111, 879.373 9.126" stroke="none" fill="#040404" fill-rule="evenodd"/><path d="M 215 66.500 L 215 133 465.500 133 L 716 133 716 66.500 L 716 0 465.500 0 L 215 0 215 66.500 M 107.602 151.737 C 105.528 167.557, 80.559 357.800, 52.116 574.500 L 0.401 968.500 62.360 968.758 C 96.437 968.899, 124.492 968.841, 124.705 968.628 C 124.918 968.415, 145.549 817.774, 170.553 633.871 C 201.510 406.175, 215.729 298.862, 215.121 297.500 C 213.926 294.822, 113.103 124.711, 112.134 123.737 C 111.716 123.317, 109.677 135.917, 107.602 151.737 M 399 311.500 L 399 425 465.500 425 L 532 425 532 311.500 L 532 198 465.500 198 L 399 198 399 311.500 M 934.786 390.675 C 932.918 393.879, 908.153 436.550, 879.753 485.500 L 828.117 574.500 856.366 771.500 L 884.616 968.500 955.170 968.757 L 1025.725 969.013 1025.331 966.757 C 1025.114 965.516, 1005.602 834.264, 981.971 675.087 C 958.341 515.909, 938.821 385.488, 938.595 385.262 C 938.369 385.035, 936.655 387.471, 934.786 390.675" stroke="none" fill="#fcec04" fill-rule="evenodd"/></svg>